<svg width="25" height="36" viewBox="0 0 40 36" fill="none" xmlns="http://www.w3.org/2000/svg">
<path fill-rule="evenodd" clip-rule="evenodd" d="M11.7443 0.969655C6.44374 2.08803 2.22266 6.1411 0.841125 11.4388C-0.280375 15.7394 -0.280375 20.2606 0.841125 24.5612C2.22266 29.859 6.44374 33.912 11.7443 35.0304L12.7572 35.244C17.5344 36.252 22.4656 36.252 27.2428 35.244L28.2556 35.0304C33.5562 33.912 37.7774 29.859 39.1588 24.5612C40.2804 20.2606 40.2804 15.7394 39.1588 11.4389C37.7774 6.14109 33.5562 2.08803 28.2556 0.969655L27.2428 0.755955C22.4656 -0.251985 17.5344 -0.251985 12.7572 0.755955L11.7443 0.969655ZM25.0224 11.3527C24.7644 10.961 24.33 10.7257 23.8648 10.7257C23.3996 10.7257 22.9652 10.961 22.7072 11.3527L16.1352 21.3282L13.428 17.219C13.17 16.8274 12.7356 16.592 12.2704 16.592H8.40558C7.63718 16.592 7.01426 17.2224 7.01426 18C7.01426 18.7776 7.63718 19.4078 8.40558 19.4078H11.5258L14.9775 24.6472C15.2356 25.039 15.67 25.2742 16.1352 25.2742C16.6004 25.2742 17.0348 25.039 17.2928 24.6472L23.8648 14.6718L26.572 18.781C26.83 19.1726 27.2644 19.4078 27.7296 19.4078H31.5944C32.3628 19.4078 32.9856 18.7776 32.9856 18C32.9856 17.2224 32.3628 16.592 31.5944 16.592H28.4742L25.0224 11.3527Z" fill="#507aff"/>
</svg>
