<svg width="25" height="40" viewBox="0 0 40 40" fill="none" xmlns="http://www.w3.org/2000/svg">
<path fill-rule="evenodd" clip-rule="evenodd" d="M13.3994 0.763782C17.7409 -0.254594 22.2591 -0.254594 26.6006 0.763782C32.8702 2.23442 37.7655 7.12982 39.2362 13.3994C40.2546 17.7409 40.2546 22.2591 39.2362 26.6006C37.7655 32.8702 32.8702 37.7655 26.6006 39.2362C22.2591 40.2546 17.7409 40.2546 13.3994 39.2362C7.12982 37.7655 2.23445 32.8702 0.763782 26.6006C-0.254594 22.2591 -0.254594 17.7409 0.763782 13.3994C2.23445 7.1298 7.12982 2.23442 13.3994 0.763782ZM23.3111 15.5831C24.0057 15.3051 24.6951 15.9944 24.4171 16.6891L22.6833 21.024C22.3804 21.7806 21.7809 22.3804 21.0242 22.6831L16.6893 24.4169C15.9946 24.6949 15.3053 24.0055 15.5831 23.3109L17.3171 18.976C17.6198 18.2193 18.2195 17.6195 18.9762 17.3169L23.3111 15.5831ZM26.7873 17.6371C27.8986 14.8587 25.1415 12.1014 22.3631 13.2128L18.0282 14.9467C16.6226 15.5089 15.5091 16.6226 14.9469 18.028L13.213 22.3629C12.1016 25.1413 14.8589 27.8986 17.6373 26.7871L21.9722 25.0533C23.3775 24.4911 24.4913 23.3773 25.0533 21.972L26.7873 17.6371Z" fill="#507aff"/>
</svg>
