<svg width="25" height="40" viewBox="0 0 40 40" fill="none" xmlns="http://www.w3.org/2000/svg">
<path d="M39.5493 19.5158C40.1502 18.9111 40.1502 17.9304 39.5493 17.3258L26.8142 4.50713C25.5111 3.19531 24.4244 2.10142 23.4458 1.3498C22.4127 0.556444 21.3213 0 20 0C18.6787 0 17.5873 0.556444 16.5542 1.3498C15.5756 2.10142 14.4888 3.19531 13.1857 4.50713L0.4506 17.3258C-0.1502 17.9304 -0.1502 18.9111 0.4506 19.5158C1.05142 20.1204 2.02551 20.1204 2.62631 19.5158L3.50767 18.6287V25.4071C3.50767 32.0607 8.05765 37.8391 14.4932 39.3587C18.1153 40.2138 21.8847 40.2138 25.5067 39.3587C31.9422 37.8391 36.4922 32.0607 36.4922 25.4071V18.6287L37.3738 19.5158C37.9744 20.1204 38.9487 20.1204 39.5493 19.5158Z" fill="#507aff"/>
</svg>
