<svg xmlns="http://www.w3.org/2000/svg" width="79.688" height="57.899" viewBox="0 0 79.688 57.899"><path d="M3,42.612a49.093,49.093,0,0,1,.744-17.835,21.517,21.517,0,0,1,1.946-5.85C8.872,12.991,15.974,10.2,22.7,9.444s13.181-.4,19.936-.791a95.4,95.4,0,0,1,28.021,2.679,13.412,13.412,0,0,1,4.157,1.461c2.881,1.8,3.931,5.433,4.5,8.773,1.709,10.063,1.108,20.376-.062,30.515-.306,2.646-.717,5.444-2.434,7.487a11.914,11.914,0,0,1-6.193,3.379c-6.087,1.645-12.485,1.636-18.794,1.616l-22.948-.074c-7.446-.024-15.552-.275-21.279-5.006a9.623,9.623,0,0,1-2.923-3.73,13.6,13.6,0,0,1-.722-3.384C3.487,48.65,3.547,46.319,3,42.612Z" transform="translate(-1.589 -7.629)" fill="#313b77"/><path d="M81.665,33.687a75.7,75.7,0,0,0-1.195-12.622c-.579-3.068-1.654-6.353-4.262-8.293A13.288,13.288,0,0,0,71.094,10.8c-2.022-.465-4.052-.889-6.094-1.254a98.154,98.154,0,0,0-11.99-1.432c-4.289-.233-8.534.009-12.818.15-4.317.141-8.639.08-12.952.322-6.764.382-14.01,1.638-19.082,6.535a17.917,17.917,0,0,0-4.8,9.4A54.7,54.7,0,0,0,2,37a49.114,49.114,0,0,0,.528,6.246c.559,3.86.449,7.839,1.252,11.663.742,3.531,3.6,6.041,6.664,7.678,6.472,3.453,14.2,3.184,21.317,3.207,8.9.029,17.827.257,26.725.024a54.124,54.124,0,0,0,12.783-1.605c3.4-.925,6.561-2.557,8.014-5.945a18.592,18.592,0,0,0,1.189-5.069c.268-2.123.481-4.257.668-6.389A123.513,123.513,0,0,0,81.665,33.687ZM78.748,52.47c-.425,3.651-1.258,7.064-4.791,8.847-3.357,1.694-7.475,2.175-11.172,2.47-8.117.648-16.365.243-24.5.215-3.953-.013-7.909.022-11.862-.058a46.633,46.633,0,0,1-9.913-1.037,18.3,18.3,0,0,1-8.821-4.546c-2.7-2.708-2.59-6.727-2.858-10.3-.132-1.772-.3-3.537-.557-5.3a46.467,46.467,0,0,1-.134-12.05c.442-3.786,1.023-8.021,2.972-11.362,3.164-5.426,9.732-7.833,15.668-8.572a109.4,109.4,0,0,1,12-.6c3.985-.056,7.96-.3,11.943-.373a97.513,97.513,0,0,1,22.864,2.5,16.08,16.08,0,0,1,5.171,1.649,7.8,7.8,0,0,1,2.894,3.725c1.347,3.274,1.651,7.059,1.935,10.548A123.311,123.311,0,0,1,78.748,52.47Z" transform="translate(-1.994 -8.019)" fill="#010101"/><path d="M19.785,17.534c-1.086,8.083.326,15.961.181,23.405,6.912-3.871,14.365-7.743,21.279-11.614A100.229,100.229,0,0,0,32.2,24.348,107.371,107.371,0,0,1,19.785,17.534Z" transform="translate(12.08 -0.313)" fill="#d6e5e5"/><path d="M42.273,28.959c-6.964-4.277-14.66-7.24-21.46-11.791a.756.756,0,0,0-.771-.074.718.718,0,0,0-.557.614,49.557,49.557,0,0,0-.646,13.055,105.847,105.847,0,0,1,.795,10.59.913.913,0,0,0,1.361.782c7.053-3.944,14.226-7.668,21.279-11.614A.912.912,0,0,0,42.273,28.959Zm-21.6,2.094a48.1,48.1,0,0,1,.373-11.6c6.061,3.855,12.731,6.637,18.933,10.257-6.166,3.419-12.4,6.715-18.568,10.134C21.329,36.9,20.934,33.989,20.673,31.053Z" transform="translate(11.508 -0.729)" fill="#010101"/></svg>