<svg width="25" height="34" viewBox="0 0 40 34" fill="none" xmlns="http://www.w3.org/2000/svg">
<path d="M10.7694 16.9234C10.7694 16.5153 10.9315 16.124 11.22 15.8355C11.5086 15.547 11.8999 15.3849 12.3079 15.3849H26.1543V5.38471C26.1543 2.30773 22.9052 0 20.0004 0H5.38471C3.95707 0.00152717 2.58833 0.569334 1.57883 1.57883C0.569334 2.58833 0.00152717 3.95707 0 5.38471V28.462C0.00152717 29.8897 0.569334 31.2584 1.57883 32.2679C2.58833 33.2774 3.95707 33.8452 5.38471 33.8468H20.7696C22.1972 33.8452 23.566 33.2774 24.5755 32.2679C25.585 31.2584 26.1528 29.8897 26.1543 28.462V18.4619H12.3079C11.8999 18.4619 11.5086 18.2998 11.22 18.0113C10.9315 17.7227 10.7694 17.3314 10.7694 16.9234Z" fill="#507aff"/>
<path d="M39.5497 15.8359L31.8573 8.14342C31.5664 7.86708 31.1791 7.7153 30.7779 7.72043C30.3767 7.72557 29.9934 7.88722 29.7097 8.17092C29.426 8.45462 29.2644 8.83792 29.2593 9.2391C29.2541 9.64028 29.4059 10.0276 29.6822 10.3185L34.7477 15.3849H26.1543V18.4619H34.7477L29.6822 23.5283C29.5334 23.6698 29.4143 23.8396 29.3321 24.0277C29.2499 24.2159 29.2062 24.4187 29.2036 24.624C29.2009 24.8293 29.2394 25.0331 29.3168 25.2233C29.3942 25.4135 29.5088 25.5864 29.654 25.7316C29.7992 25.8768 29.972 25.9914 30.1623 26.0688C30.3525 26.1462 30.5563 26.1847 30.7616 26.182C30.9669 26.1794 31.1697 26.1357 31.3579 26.0535C31.546 25.9713 31.7158 25.8522 31.8573 25.7034L39.5497 18.0109C39.838 17.7224 40 17.3312 40 16.9234C40 16.5155 39.838 16.1244 39.5497 15.8359Z" fill="#507aff"/>
</svg>
