<svg width="25" height="40" viewBox="0 0 40 40" fill="none" xmlns="http://www.w3.org/2000/svg">
<path fill-rule="evenodd" clip-rule="evenodd" d="M26.6006 0.763782C22.2591 -0.254594 17.7409 -0.254594 13.3994 0.763782C7.12982 2.23442 2.23445 7.12979 0.763782 13.3994C-0.254594 17.7409 -0.254594 22.2591 0.763782 26.6006C2.23445 32.8702 7.12982 37.7655 13.3994 39.2362C17.7409 40.2546 22.2591 40.2546 26.6006 39.2362C32.8702 37.7655 37.7655 32.8702 39.2362 26.6006C40.2546 22.2591 40.2546 17.7409 39.2362 13.3994C37.7655 7.12982 32.8702 2.23442 26.6006 0.763782ZM17.7518 11.6116C18.2724 12.1323 18.2724 12.9765 17.7518 13.4972L13.4972 17.7518C13.2472 18.002 12.9081 18.1424 12.5544 18.1424C12.2008 18.1424 11.8617 18.002 11.6116 17.7518L9.48432 15.6244C8.96361 15.1038 8.96361 14.2596 9.48432 13.7389C10.005 13.2182 10.8492 13.2182 11.3699 13.7389L12.5544 14.9234L15.8662 11.6116C16.3869 11.0909 17.2311 11.0909 17.7518 11.6116ZM20.794 15.7453C20.794 15.009 21.3909 14.4121 22.1273 14.4121H29.5729C30.3093 14.4121 30.9062 15.009 30.9062 15.7453C30.9062 16.4818 30.3093 17.0786 29.5729 17.0786H22.1273C21.3909 17.0786 20.794 16.4818 20.794 15.7453ZM17.7518 22.2482C18.2724 22.7689 18.2724 23.6131 17.7518 24.1337L13.4972 28.3884C12.9765 28.9091 12.1323 28.9091 11.6116 28.3884L9.48432 26.2611C8.96361 25.7404 8.96361 24.8962 9.48432 24.3755C10.005 23.8546 10.8492 23.8546 11.3699 24.3755L12.5544 25.56L15.8662 22.2482C16.3869 21.7275 17.2311 21.7275 17.7518 22.2482ZM20.794 26.382C20.794 25.6455 21.3909 25.0486 22.1273 25.0486H29.5729C30.3093 25.0486 30.9062 25.6455 30.9062 26.382C30.9062 27.1182 30.3093 27.7153 29.5729 27.7153H22.1273C21.3909 27.7153 20.794 27.1182 20.794 26.382Z" fill="#507aff"/>
</svg>
