<svg xmlns="http://www.w3.org/2000/svg" xmlns:xlink="http://www.w3.org/1999/xlink" width="24" viewBox="0 0 30.5 28.5">
  <defs>
    <filter id="Exclusion_2" x="1.5" y="0" width="28.999" height="26" filterUnits="userSpaceOnUse">
      <feOffset dx="-1" dy="1" input="SourceAlpha"/>
      <feGaussianBlur stdDeviation="0.5" result="blur"/>
      <feFlood flood-opacity="0.039"/>
      <feComposite operator="in" in2="blur"/>
      <feComposite in="SourceGraphic"/>
    </filter>
  </defs>
  <g id="playlist-a" transform="translate(-228 -99.5)">
    <g id="Rectangle_32" data-name="Rectangle 32" transform="translate(228 105)" fill="#edf0f3" stroke="#707070" stroke-width="0.3">
      <rect width="28" height="23" stroke="none"/>
      <rect x="0.15" y="0.15" width="27.7" height="22.7" fill="none"/>
    </g>
    <g transform="matrix(1, 0, 0, 1, 228, 99.5)" filter="url(#Exclusion_2)">
      <g id="Exclusion_2-2" data-name="Exclusion 2" transform="translate(-64 -725.5)" fill="#f3f9fe">
        <path d="M 89.00009918212891 748.8497924804688 L 68.15039825439453 748.8497924804688 L 68.15039825439453 726.1503295898438 L 89.00009918212891 726.1503295898438 C 91.67411804199219 726.1503295898438 93.84960174560547 728.3258056640625 93.84960174560547 730.9998168945313 L 93.84960174560547 744.0003051757813 C 93.84960174560547 746.67431640625 91.67411804199219 748.8497924804688 89.00009918212891 748.8497924804688 Z M 75.84960174560547 731.7347412109375 L 75.84960174560547 731.9996948242188 L 75.84960174560547 744.0003051757813 L 75.84960174560547 744.2651977539063 L 76.07676696777344 744.12890625 L 86.07756805419922 738.1286010742188 L 86.29194641113281 738 L 86.07756805419922 737.8713989257813 L 76.07676696777344 731.87109375 L 75.84960174560547 731.7347412109375 Z" stroke="none"/>
        <path d="M 89.00009918212891 748.6998291015625 C 91.59140777587891 748.6998291015625 93.69960021972656 746.5916137695313 93.69960021972656 744.0003051757813 L 93.69960021972656 730.9998168945313 C 93.69960021972656 728.4085083007813 91.59140777587891 726.30029296875 89.00009918212891 726.30029296875 L 68.30039978027344 726.30029296875 L 68.30039978027344 748.6998291015625 L 89.00009918212891 748.6998291015625 M 75.69960021972656 731.4698486328125 L 76.15395355224609 731.742431640625 L 86.15474700927734 737.7427368164063 L 86.58351135253906 738 L 86.15474700927734 738.2572631835938 L 76.15395355224609 744.257568359375 L 75.69960021972656 744.5301513671875 L 75.69960021972656 744.0003051757813 L 75.69960021972656 731.9996948242188 L 75.69960021972656 731.4698486328125 M 89.00009918212891 748.9998168945313 L 68.00039672851563 748.9998168945313 L 68.00039672851563 726.0003051757813 L 89.00009918212891 726.0003051757813 C 91.75682830810547 726.0003051757813 93.99960327148438 728.2430419921875 93.99960327148438 730.9998168945313 L 93.99960327148438 744.0003051757813 C 93.99960327148438 746.757080078125 91.75682830810547 748.9998168945313 89.00009918212891 748.9998168945313 Z M 75.99960327148438 731.9996948242188 L 75.99960327148438 744.0003051757813 L 86.00039672851563 738 L 75.99960327148438 731.9996948242188 Z" stroke="none" fill="#707070"/>
      </g>
    </g>
  </g>
</svg>
