<svg width="25" height="40" viewBox="0 0 40 40" fill="none" xmlns="http://www.w3.org/2000/svg">
<path fill-rule="evenodd" clip-rule="evenodd" d="M9.80522 36.2313L10.1948 36.4436C13.7714 38.3911 15.5598 39.3651 17.456 39.7467C19.134 40.0844 20.866 40.0844 22.544 39.7467C24.4402 39.3651 26.2287 38.3913 29.8051 36.4436L30.1949 36.2313C33.5264 34.4169 35.1922 33.5098 36.4456 32.2664C37.8731 30.8504 38.9202 29.1171 39.4951 27.2184C40 25.5511 40 23.7009 40 20C40 16.2993 40 14.4488 39.4951 12.7816C38.9202 10.8829 37.8731 9.14957 36.4456 7.73355C35.1922 6.49024 33.5264 5.58306 30.1949 3.76868L29.8053 3.55655C26.2287 1.60879 24.4402 0.634906 22.544 0.253283C20.866 -0.0844278 19.134 -0.0844278 17.456 0.253283C15.5598 0.634906 13.7714 1.60877 10.1948 3.55655L9.80522 3.76868C6.47356 5.58304 4.80771 6.49024 3.55436 7.73355C2.12684 9.14957 1.07978 10.8829 0.504822 12.7816C-3.31137e-08 14.4488 0 16.2991 0 20C0 23.7009 -3.31137e-08 25.5511 0.504822 27.2184C1.07978 29.1171 2.12687 30.8504 3.55436 32.2664C4.80771 33.5098 6.4736 34.4169 9.80522 36.2313ZM20 12.4969C15.7198 12.4969 12.25 15.8562 12.25 20C12.25 24.1438 15.7198 27.5031 20 27.5031C24.2802 27.5031 27.75 24.1438 27.75 20C27.75 15.8562 24.2802 12.4969 20 12.4969ZM15.25 20C15.25 17.4602 17.3767 15.4013 20 15.4013C22.6233 15.4013 24.75 17.4602 24.75 20C24.75 22.5398 22.6233 24.5987 20 24.5987C17.3767 24.5987 15.25 22.5398 15.25 20Z" fill="#507aff"/>
</svg>
