<svg width="25" height="40" viewBox="0 0 40 40" fill="none" xmlns="http://www.w3.org/2000/svg">
<path fill-rule="evenodd" clip-rule="evenodd" d="M13.3995 0.763781C17.7408 -0.254594 22.2591 -0.254594 26.6006 0.763781C32.8701 2.23444 37.7657 7.12983 39.2363 13.3995C40.2546 17.7408 40.2546 22.2591 39.2363 26.6006C37.7657 32.8701 32.8701 37.7657 26.6006 39.2363C22.2591 40.2546 17.7408 40.2546 13.3995 39.2363C7.12983 37.7657 2.23444 32.8701 0.763781 26.6006C-0.254594 22.2591 -0.254594 17.7408 0.763781 13.3994C2.23444 7.12981 7.12981 2.23444 13.3995 0.763781ZM20.6128 13.618C20.6128 12.8817 20.0159 12.2847 19.2795 12.2847C18.5433 12.2847 17.9462 12.8817 17.9462 13.618V21.4762C17.9462 21.9319 18.1793 22.3564 18.564 22.6011L24.6024 26.443C25.2237 26.8384 26.0477 26.6553 26.443 26.0339C26.8384 25.4126 26.6553 24.5886 26.0339 24.1933L20.6128 20.7442V13.618Z" fill="#507aff"/>
</svg>
